<svg width="70" height="19" viewBox="0 0 70 19" fill="none" xmlns="http://www.w3.org/2000/svg">
    <path fill-rule="evenodd" clip-rule="evenodd" d="M17.4187 14.7016C17.4187 14.7016 17.2857 15.3501 17.8679 15.4037C18.1622 15.4134 18.4752 15.4134 18.8041 15.4134C20.9032 15.4134 22.8235 14.62 22.8665 12.6713C22.9061 10.9441 21.4117 10.4235 19.6109 10.4235H18.3403L17.4187 14.7016ZM26.9421 12.7665C26.9421 15.3513 24.8321 18.7613 17.5347 18.3416C16.6795 18.292 16.1539 18.2193 15.3825 18.0244C12.6338 17.3287 13.6007 13.9933 13.6007 13.9933L16.3975 1.08654C17.9365 0.828672 19.6625 0.672094 21.4353 0.672094C25.3383 0.672094 27.9245 2.1043 27.9245 4.78469C27.9245 7.29437 25.5691 8.65838 23.7861 8.9675C25.199 9.07605 26.9421 10.1975 26.9421 12.7665ZM19.8064 3.66927L19.1008 6.99453C19.1008 6.99453 18.9255 7.70639 19.5232 7.70639H20.3462C22.4635 7.70639 23.93 6.85329 23.9669 5.35046C23.9967 4.11075 22.9588 3.57362 21.485 3.57362C20.8113 3.57362 20.1038 3.62084 19.8064 3.66927ZM44.7857 18.3882H42.4691L46.1424 1.18235C47.6616 0.817131 49.2607 0.744895 51.1127 0.761037C55.6332 0.779601 57.7055 2.55805 57.7055 5.65814C57.7055 8.49873 55.5312 12.6783 49.279 12.6783C48.6386 12.6783 48.0879 12.6029 47.6903 12.5754C47.6903 12.5754 47.1811 14.9677 46.8782 16.3773C46.4965 18.1468 45.3783 18.3882 44.7857 18.3882ZM49.8111 3.79452L48.7899 8.59193C48.7899 8.59193 48.4606 9.61171 49.6362 9.61171C49.7813 9.61817 49.9387 9.6226 50.1121 9.6226C52.7402 9.60162 54.0899 7.81833 54.0899 5.97208C54.0899 4.15569 52.8837 3.70896 51.4316 3.70896C50.69 3.70896 50.1334 3.74528 49.8111 3.79452ZM33.2987 10.7866C33.2987 13.5025 34.8148 15.239 37.4157 15.239C38.4866 15.239 39.6567 15.0521 41.2349 13.8479L40.6163 16.7406C40.6163 16.7406 40.4445 17.7002 39.4194 18.0731C38.5867 18.398 37.7082 18.5457 36.3767 18.5457C32.6676 18.5457 29.0482 16.6457 29.0482 11.0162C29.0482 5.75025 32.2914 0.397949 38.5521 0.397949C39.7805 0.397949 40.6489 0.577933 41.7608 0.951218C43.4755 1.52668 43.6838 2.49279 43.5702 3.07188C43.4542 3.6647 43.0497 5.08924 43.0497 5.08924C41.9711 4.08681 40.0923 3.80473 39.0478 3.80473C35.046 3.80473 33.2987 7.98593 33.2987 10.7866ZM6.85615 8.53852C5.45678 6.95983 3.98061 6.00543 2.89074 5.46144C2.89074 5.46144 2.35977 5.18743 2.08246 5.03004C2.4866 4.08493 3.01835 3.40978 3.01835 3.40978C3.09359 3.30769 4.70434 1.33835 6.12117 2.03004C7.6687 2.75442 7.82617 6.07928 6.85615 8.53852ZM64.3465 8.53852C62.9471 6.95983 61.4709 6.00543 60.381 5.46144C60.381 5.46144 59.8501 5.18743 59.5728 5.03004C59.9769 4.08493 60.5086 3.40978 60.5086 3.40978C60.5839 3.30769 62.1946 1.33835 63.6115 2.03004C65.159 2.75442 65.3165 6.07928 64.3465 8.53852Z" fill="#002A8D"/>
    <path fill-rule="evenodd" clip-rule="evenodd" d="M11.6575 11.0528C10.1488 13.56 6.03289 16.418 4.86662 16.8465C2.59845 17.834 1.06295 16.0027 0.931852 15.8106C0.508704 15.2436 0.405924 15.1238 0.201137 14.7101C0.161188 14.7787 4.55517 12.652 6.12947 9.90062C7.83447 7.53742 7.98301 2.90182 6.12093 2.03015C6.68409 2.32515 8.01094 3.11772 9.20824 4.22789C10.4028 5.28157 11.4353 6.66333 11.4132 6.64557C11.5392 6.82354 13.0356 8.76139 11.6575 11.0528ZM68.9035 6.64557C69.0295 6.82354 70.5259 8.76139 69.1478 11.0528C67.6395 13.56 63.5232 16.418 62.3569 16.8465C60.0887 17.834 58.5532 16.0027 58.4221 15.8106C57.999 15.2436 57.8962 15.1238 57.6914 14.7101C57.6515 14.7787 62.0458 12.652 63.6198 9.90062C65.3248 7.53742 65.4733 2.90182 63.6112 2.03015C64.1744 2.32515 65.5012 3.11772 66.6985 4.22789C67.8931 5.28157 68.926 6.66333 68.9035 6.64557Z" fill="#FF7800"/>
    </svg>
    